<mxfile host="app.diagrams.net" agent="Mozilla/5.0 (X11; Linux x86_64) AppleWebKit/537.36 (KHTML, like Gecko) Chrome/139.0.0.0 Safari/537.36" version="28.1.1">
  <diagram name="Page-1" id="M88oTx56eknA0PKpgeKN">
    <mxGraphModel dx="802" dy="470" grid="1" gridSize="10" guides="1" tooltips="1" connect="1" arrows="1" fold="1" page="1" pageScale="1" pageWidth="827" pageHeight="1169" math="0" shadow="0">
      <root>
        <mxCell id="0" />
        <mxCell id="1" parent="0" />
        <mxCell id="ksmMjUWratzDdnnF7wuf-2" value="" style="html=1;verticalLabelPosition=bottom;align=center;labelBackgroundColor=#ffffff;verticalAlign=top;strokeWidth=2;shadow=0;dashed=0;shape=mxgraph.ios7.icons.monitor;fillStyle=dashed;gradientDirection=east;fillColor=#000000;" vertex="1" parent="1">
          <mxGeometry x="35.3" y="40.5" width="150" height="119.5" as="geometry" />
        </mxCell>
        <mxCell id="ksmMjUWratzDdnnF7wuf-4" value="" style="shape=image;html=1;verticalAlign=top;verticalLabelPosition=bottom;labelBackgroundColor=#ffffff;imageAspect=0;aspect=fixed;image=https://icons.diagrams.net/icon-cache1/80_S_Stuffs_Outline-2557/Asset_11-641.svg" vertex="1" parent="1">
          <mxGeometry x="240" y="103.5" width="66" height="56" as="geometry" />
        </mxCell>
        <mxCell id="ksmMjUWratzDdnnF7wuf-5" value="" style="shape=mxgraph.signs.tech.usb;html=1;pointerEvents=1;fillColor=#000000;strokeColor=none;verticalLabelPosition=bottom;verticalAlign=top;align=center;" vertex="1" parent="1">
          <mxGeometry x="339.5" y="246.5" width="20" height="30.5" as="geometry" />
        </mxCell>
        <mxCell id="ksmMjUWratzDdnnF7wuf-19" value="" style="image;aspect=fixed;html=1;points=[];align=center;fontSize=12;image=img/lib/azure2/general/Power.svg;imageBackground=none;fillStyle=dots;" vertex="1" parent="1">
          <mxGeometry x="551.08" y="346" width="18.12" height="28" as="geometry" />
        </mxCell>
        <mxCell id="ksmMjUWratzDdnnF7wuf-20" value="" style="shape=image;html=1;verticalAlign=top;verticalLabelPosition=bottom;labelBackgroundColor=#ffffff;imageAspect=0;image=https://icons.diagrams.net/icon-cache1/Bootstrap_Vol_3-2297/keyboard-925.svg;strokeWidth=1.9685;" vertex="1" parent="1">
          <mxGeometry x="490.4" y="214.5" width="104.5" height="94.5" as="geometry" />
        </mxCell>
        <mxCell id="ksmMjUWratzDdnnF7wuf-21" value="" style="shape=image;html=1;verticalAlign=top;verticalLabelPosition=bottom;labelBackgroundColor=#ffffff;imageAspect=0;aspect=fixed;image=https://icons.diagrams.net/icon-cache1/80_S_Stuffs_Outline-2557/Asset_11-641.svg" vertex="1" parent="1">
          <mxGeometry x="240" y="40" width="66" height="56" as="geometry" />
        </mxCell>
        <mxCell id="ksmMjUWratzDdnnF7wuf-22" value="" style="group" vertex="1" connectable="0" parent="1">
          <mxGeometry x="479.20000000000005" y="48" width="80" height="40" as="geometry" />
        </mxCell>
        <mxCell id="ksmMjUWratzDdnnF7wuf-6" value="" style="verticalLabelPosition=bottom;dashed=0;shadow=0;html=1;align=center;verticalAlign=top;shape=mxgraph.cabinets.cb_1p;" vertex="1" parent="ksmMjUWratzDdnnF7wuf-22">
          <mxGeometry width="8" height="40" as="geometry" />
        </mxCell>
        <mxCell id="ksmMjUWratzDdnnF7wuf-7" value="" style="verticalLabelPosition=bottom;dashed=0;shadow=0;html=1;align=center;verticalAlign=top;shape=mxgraph.cabinets.cb_1p;" vertex="1" parent="ksmMjUWratzDdnnF7wuf-22">
          <mxGeometry x="8" width="8" height="40" as="geometry" />
        </mxCell>
        <mxCell id="ksmMjUWratzDdnnF7wuf-8" value="" style="verticalLabelPosition=bottom;dashed=0;shadow=0;html=1;align=center;verticalAlign=top;shape=mxgraph.cabinets.cb_1p;" vertex="1" parent="ksmMjUWratzDdnnF7wuf-22">
          <mxGeometry x="16" width="8" height="40" as="geometry" />
        </mxCell>
        <mxCell id="ksmMjUWratzDdnnF7wuf-9" value="" style="verticalLabelPosition=bottom;dashed=0;shadow=0;html=1;align=center;verticalAlign=top;shape=mxgraph.cabinets.cb_1p;" vertex="1" parent="ksmMjUWratzDdnnF7wuf-22">
          <mxGeometry x="24" width="8" height="40" as="geometry" />
        </mxCell>
        <mxCell id="ksmMjUWratzDdnnF7wuf-10" value="" style="verticalLabelPosition=bottom;dashed=0;shadow=0;html=1;align=center;verticalAlign=top;shape=mxgraph.cabinets.cb_1p;" vertex="1" parent="ksmMjUWratzDdnnF7wuf-22">
          <mxGeometry x="32" width="8" height="40" as="geometry" />
        </mxCell>
        <mxCell id="ksmMjUWratzDdnnF7wuf-11" value="" style="verticalLabelPosition=bottom;dashed=0;shadow=0;html=1;align=center;verticalAlign=top;shape=mxgraph.cabinets.cb_1p;" vertex="1" parent="ksmMjUWratzDdnnF7wuf-22">
          <mxGeometry x="40" width="8" height="40" as="geometry" />
        </mxCell>
        <mxCell id="ksmMjUWratzDdnnF7wuf-12" value="" style="verticalLabelPosition=bottom;dashed=0;shadow=0;html=1;align=center;verticalAlign=top;shape=mxgraph.cabinets.cb_1p;" vertex="1" parent="ksmMjUWratzDdnnF7wuf-22">
          <mxGeometry x="48" width="8" height="40" as="geometry" />
        </mxCell>
        <mxCell id="ksmMjUWratzDdnnF7wuf-13" value="" style="verticalLabelPosition=bottom;dashed=0;shadow=0;html=1;align=center;verticalAlign=top;shape=mxgraph.cabinets.cb_1p;" vertex="1" parent="ksmMjUWratzDdnnF7wuf-22">
          <mxGeometry x="56" width="8" height="40" as="geometry" />
        </mxCell>
        <mxCell id="ksmMjUWratzDdnnF7wuf-14" value="" style="verticalLabelPosition=bottom;dashed=0;shadow=0;html=1;align=center;verticalAlign=top;shape=mxgraph.cabinets.cb_1p;" vertex="1" parent="ksmMjUWratzDdnnF7wuf-22">
          <mxGeometry x="64" width="8" height="40" as="geometry" />
        </mxCell>
        <mxCell id="ksmMjUWratzDdnnF7wuf-15" value="" style="verticalLabelPosition=bottom;dashed=0;shadow=0;html=1;align=center;verticalAlign=top;shape=mxgraph.cabinets.cb_1p;" vertex="1" parent="ksmMjUWratzDdnnF7wuf-22">
          <mxGeometry x="72" width="8" height="40" as="geometry" />
        </mxCell>
        <mxCell id="ksmMjUWratzDdnnF7wuf-34" value="&lt;font style=&quot;font-size: 15px;&quot; face=&quot;Times New Roman&quot;&gt;Joystick 1 and 2&lt;/font&gt;" style="text;html=1;align=center;verticalAlign=middle;whiteSpace=wrap;rounded=0;" vertex="1" parent="1">
          <mxGeometry x="223" y="10" width="100" height="30" as="geometry" />
        </mxCell>
        <mxCell id="ksmMjUWratzDdnnF7wuf-35" value="&lt;font face=&quot;Times New Roman&quot;&gt;&lt;span style=&quot;font-size: 15px;&quot;&gt;Screen&lt;/span&gt;&lt;/font&gt;" style="text;html=1;align=center;verticalAlign=middle;whiteSpace=wrap;rounded=0;" vertex="1" parent="1">
          <mxGeometry x="58.3" y="10" width="104" height="30" as="geometry" />
        </mxCell>
        <mxCell id="ksmMjUWratzDdnnF7wuf-36" value="" style="group" vertex="1" connectable="0" parent="1">
          <mxGeometry x="480" y="120" width="80" height="40" as="geometry" />
        </mxCell>
        <mxCell id="ksmMjUWratzDdnnF7wuf-37" value="" style="verticalLabelPosition=bottom;dashed=0;shadow=0;html=1;align=center;verticalAlign=top;shape=mxgraph.cabinets.cb_1p;" vertex="1" parent="ksmMjUWratzDdnnF7wuf-36">
          <mxGeometry width="8" height="40" as="geometry" />
        </mxCell>
        <mxCell id="ksmMjUWratzDdnnF7wuf-38" value="" style="verticalLabelPosition=bottom;dashed=0;shadow=0;html=1;align=center;verticalAlign=top;shape=mxgraph.cabinets.cb_1p;" vertex="1" parent="ksmMjUWratzDdnnF7wuf-36">
          <mxGeometry x="8" width="8" height="40" as="geometry" />
        </mxCell>
        <mxCell id="ksmMjUWratzDdnnF7wuf-39" value="" style="verticalLabelPosition=bottom;dashed=0;shadow=0;html=1;align=center;verticalAlign=top;shape=mxgraph.cabinets.cb_1p;" vertex="1" parent="ksmMjUWratzDdnnF7wuf-36">
          <mxGeometry x="16" width="8" height="40" as="geometry" />
        </mxCell>
        <mxCell id="ksmMjUWratzDdnnF7wuf-40" value="" style="verticalLabelPosition=bottom;dashed=0;shadow=0;html=1;align=center;verticalAlign=top;shape=mxgraph.cabinets.cb_1p;" vertex="1" parent="ksmMjUWratzDdnnF7wuf-36">
          <mxGeometry x="24" width="8" height="40" as="geometry" />
        </mxCell>
        <mxCell id="ksmMjUWratzDdnnF7wuf-41" value="" style="verticalLabelPosition=bottom;dashed=0;shadow=0;html=1;align=center;verticalAlign=top;shape=mxgraph.cabinets.cb_1p;" vertex="1" parent="ksmMjUWratzDdnnF7wuf-36">
          <mxGeometry x="32" width="8" height="40" as="geometry" />
        </mxCell>
        <mxCell id="ksmMjUWratzDdnnF7wuf-42" value="" style="verticalLabelPosition=bottom;dashed=0;shadow=0;html=1;align=center;verticalAlign=top;shape=mxgraph.cabinets.cb_1p;" vertex="1" parent="ksmMjUWratzDdnnF7wuf-36">
          <mxGeometry x="40" width="8" height="40" as="geometry" />
        </mxCell>
        <mxCell id="ksmMjUWratzDdnnF7wuf-43" value="" style="verticalLabelPosition=bottom;dashed=0;shadow=0;html=1;align=center;verticalAlign=top;shape=mxgraph.cabinets.cb_1p;" vertex="1" parent="ksmMjUWratzDdnnF7wuf-36">
          <mxGeometry x="48" width="8" height="40" as="geometry" />
        </mxCell>
        <mxCell id="ksmMjUWratzDdnnF7wuf-44" value="" style="verticalLabelPosition=bottom;dashed=0;shadow=0;html=1;align=center;verticalAlign=top;shape=mxgraph.cabinets.cb_1p;" vertex="1" parent="ksmMjUWratzDdnnF7wuf-36">
          <mxGeometry x="56" width="8" height="40" as="geometry" />
        </mxCell>
        <mxCell id="ksmMjUWratzDdnnF7wuf-45" value="" style="verticalLabelPosition=bottom;dashed=0;shadow=0;html=1;align=center;verticalAlign=top;shape=mxgraph.cabinets.cb_1p;" vertex="1" parent="ksmMjUWratzDdnnF7wuf-36">
          <mxGeometry x="64" width="8" height="40" as="geometry" />
        </mxCell>
        <mxCell id="ksmMjUWratzDdnnF7wuf-46" value="" style="verticalLabelPosition=bottom;dashed=0;shadow=0;html=1;align=center;verticalAlign=top;shape=mxgraph.cabinets.cb_1p;" vertex="1" parent="ksmMjUWratzDdnnF7wuf-36">
          <mxGeometry x="72" width="8" height="40" as="geometry" />
        </mxCell>
        <mxCell id="ksmMjUWratzDdnnF7wuf-47" value="" style="endArrow=classic;startArrow=none;html=1;rounded=0;entryX=0.027;entryY=0.518;entryDx=0;entryDy=0;entryPerimeter=0;startFill=0;" edge="1" parent="1" target="ksmMjUWratzDdnnF7wuf-6">
          <mxGeometry width="50" height="50" relative="1" as="geometry">
            <mxPoint x="320" y="69" as="sourcePoint" />
            <mxPoint x="360" y="80" as="targetPoint" />
          </mxGeometry>
        </mxCell>
        <mxCell id="ksmMjUWratzDdnnF7wuf-48" value="" style="endArrow=classic;startArrow=none;html=1;rounded=0;entryX=0.027;entryY=0.518;entryDx=0;entryDy=0;entryPerimeter=0;startFill=0;" edge="1" parent="1">
          <mxGeometry width="50" height="50" relative="1" as="geometry">
            <mxPoint x="320" y="141" as="sourcePoint" />
            <mxPoint x="480" y="140.5" as="targetPoint" />
          </mxGeometry>
        </mxCell>
        <mxCell id="ksmMjUWratzDdnnF7wuf-49" value="&lt;font style=&quot;font-size: 15px;&quot; face=&quot;Times New Roman&quot;&gt;USB-Encoders&lt;/font&gt;" style="text;html=1;align=center;verticalAlign=middle;whiteSpace=wrap;rounded=0;" vertex="1" parent="1">
          <mxGeometry x="469.20000000000005" y="10" width="100" height="30" as="geometry" />
        </mxCell>
        <mxCell id="ksmMjUWratzDdnnF7wuf-51" value="" style="group;fillColor=none;fillStyle=cross-hatch;gradientDirection=radial;fontColor=#ffffff;strokeColor=none;" vertex="1" connectable="0" parent="1">
          <mxGeometry x="307" y="280" width="85" height="110" as="geometry" />
        </mxCell>
        <mxCell id="ksmMjUWratzDdnnF7wuf-50" value="" style="rounded=1;whiteSpace=wrap;html=1;rotation=90;fillColor=#CCCCCC;fillStyle=auto;" vertex="1" parent="ksmMjUWratzDdnnF7wuf-51">
          <mxGeometry x="-12.5" y="12.5" width="110" height="85" as="geometry" />
        </mxCell>
        <mxCell id="ksmMjUWratzDdnnF7wuf-16" value="" style="shape=image;html=1;verticalAlign=top;verticalLabelPosition=bottom;labelBackgroundColor=#ffffff;imageAspect=0;aspect=fixed;image=https://icons.diagrams.net/icon-cache1/Fruit-2455/Fruit_iconfree_Filled_Outline_raspberry-healthy-organic-food-fruit_icon-896.svg" vertex="1" parent="ksmMjUWratzDdnnF7wuf-51">
          <mxGeometry x="10.5" y="23" width="64" height="64" as="geometry" />
        </mxCell>
        <mxCell id="ksmMjUWratzDdnnF7wuf-52" value="" style="shape=image;html=1;verticalAlign=top;verticalLabelPosition=bottom;labelBackgroundColor=#ffffff;imageAspect=0;aspect=fixed;image=https://icons.diagrams.net/icon-cache1/Bootstrap_Vol_3-2297/hdmi-916.svg" vertex="1" parent="1">
          <mxGeometry x="271" y="297" width="26" height="26" as="geometry" />
        </mxCell>
        <mxCell id="ksmMjUWratzDdnnF7wuf-56" value="&lt;font face=&quot;Times New Roman&quot;&gt;&lt;span style=&quot;font-size: 15px;&quot;&gt;HDMI&lt;/span&gt;&lt;/font&gt;" style="text;html=1;align=center;verticalAlign=middle;whiteSpace=wrap;rounded=0;" vertex="1" parent="1">
          <mxGeometry x="232" y="281" width="104" height="30" as="geometry" />
        </mxCell>
        <mxCell id="ksmMjUWratzDdnnF7wuf-57" value="&lt;font face=&quot;Times New Roman&quot;&gt;&lt;span style=&quot;font-size: 15px;&quot;&gt;USB&lt;/span&gt;&lt;/font&gt;" style="text;html=1;align=center;verticalAlign=middle;whiteSpace=wrap;rounded=0;" vertex="1" parent="1">
          <mxGeometry x="271" y="246.5" width="104" height="30" as="geometry" />
        </mxCell>
        <mxCell id="ksmMjUWratzDdnnF7wuf-58" value="" style="endArrow=classic;html=1;rounded=0;edgeStyle=orthogonalEdgeStyle;exitX=1.164;exitY=0.493;exitDx=0;exitDy=0;exitPerimeter=0;" edge="1" parent="1" source="ksmMjUWratzDdnnF7wuf-15">
          <mxGeometry width="50" height="50" relative="1" as="geometry">
            <mxPoint x="620" y="88" as="sourcePoint" />
            <mxPoint x="350" y="240" as="targetPoint" />
            <Array as="points">
              <mxPoint x="600" y="68" />
              <mxPoint x="600" y="190" />
              <mxPoint x="350" y="190" />
            </Array>
          </mxGeometry>
        </mxCell>
        <mxCell id="ksmMjUWratzDdnnF7wuf-59" value="" style="endArrow=classic;html=1;rounded=0;edgeStyle=orthogonalEdgeStyle;exitX=1.185;exitY=0.539;exitDx=0;exitDy=0;exitPerimeter=0;entryX=0.66;entryY=-0.212;entryDx=0;entryDy=0;entryPerimeter=0;" edge="1" parent="1" source="ksmMjUWratzDdnnF7wuf-46" target="ksmMjUWratzDdnnF7wuf-57">
          <mxGeometry width="50" height="50" relative="1" as="geometry">
            <mxPoint x="590" y="90" as="sourcePoint" />
            <mxPoint x="350" y="240" as="targetPoint" />
            <Array as="points">
              <mxPoint x="590" y="142" />
              <mxPoint x="590" y="180" />
              <mxPoint x="340" y="180" />
            </Array>
          </mxGeometry>
        </mxCell>
        <mxCell id="ksmMjUWratzDdnnF7wuf-60" value="&lt;font style=&quot;font-size: 15px;&quot; face=&quot;Times New Roman&quot;&gt;Keyboard&lt;/font&gt;&lt;div&gt;&lt;font style=&quot;font-size: 15px;&quot; face=&quot;Times New Roman&quot;&gt;(for configuration)&lt;/font&gt;&lt;/div&gt;" style="text;html=1;align=center;verticalAlign=middle;whiteSpace=wrap;rounded=0;" vertex="1" parent="1">
          <mxGeometry x="482.84999999999997" y="206" width="119.6" height="30" as="geometry" />
        </mxCell>
        <mxCell id="ksmMjUWratzDdnnF7wuf-61" value="" style="endArrow=classic;html=1;rounded=0;edgeStyle=orthogonalEdgeStyle;" edge="1" parent="1">
          <mxGeometry width="50" height="50" relative="1" as="geometry">
            <mxPoint x="480" y="260" as="sourcePoint" />
            <mxPoint x="360" y="240" as="targetPoint" />
            <Array as="points">
              <mxPoint x="470" y="260" />
              <mxPoint x="470" y="200" />
              <mxPoint x="360" y="200" />
            </Array>
          </mxGeometry>
        </mxCell>
        <mxCell id="ksmMjUWratzDdnnF7wuf-62" value="" style="endArrow=classic;html=1;rounded=0;edgeStyle=orthogonalEdgeStyle;entryX=0.261;entryY=0.856;entryDx=0;entryDy=0;entryPerimeter=0;" edge="1" parent="1" target="ksmMjUWratzDdnnF7wuf-56">
          <mxGeometry width="50" height="50" relative="1" as="geometry">
            <mxPoint x="110" y="170" as="sourcePoint" />
            <mxPoint x="230" y="280" as="targetPoint" />
            <Array as="points">
              <mxPoint x="110" y="180" />
              <mxPoint x="230" y="180" />
              <mxPoint x="230" y="307" />
            </Array>
          </mxGeometry>
        </mxCell>
        <mxCell id="ksmMjUWratzDdnnF7wuf-64" value="" style="group" vertex="1" connectable="0" parent="1">
          <mxGeometry x="100" y="330" width="40" height="60" as="geometry" />
        </mxCell>
        <mxCell id="ksmMjUWratzDdnnF7wuf-63" value="" style="rounded=0;whiteSpace=wrap;html=1;" vertex="1" parent="ksmMjUWratzDdnnF7wuf-64">
          <mxGeometry width="40" height="60" as="geometry" />
        </mxCell>
        <mxCell id="ksmMjUWratzDdnnF7wuf-18" value="" style="html=1;verticalLabelPosition=bottom;align=center;labelBackgroundColor=#ffffff;verticalAlign=top;strokeWidth=2;strokeColor=#000000;shadow=0;dashed=0;shape=mxgraph.ios7.icons.volume_2;pointerEvents=1" vertex="1" parent="ksmMjUWratzDdnnF7wuf-64">
          <mxGeometry x="4.849999999999994" y="15.899999999999977" width="30.299999999999997" height="28.2" as="geometry" />
        </mxCell>
        <mxCell id="ksmMjUWratzDdnnF7wuf-65" value="&lt;font face=&quot;Times New Roman&quot;&gt;&lt;span style=&quot;font-size: 15px;&quot;&gt;Speaker&lt;/span&gt;&lt;/font&gt;" style="text;html=1;align=center;verticalAlign=middle;whiteSpace=wrap;rounded=0;" vertex="1" parent="1">
          <mxGeometry x="68" y="300" width="104" height="30" as="geometry" />
        </mxCell>
        <mxCell id="ksmMjUWratzDdnnF7wuf-66" value="" style="html=1;verticalLabelPosition=bottom;labelBackgroundColor=#ffffff;verticalAlign=top;shadow=0;dashed=0;strokeWidth=2;shape=mxgraph.ios7.misc.circle;strokeColor=#222222;fillColor=none;" vertex="1" parent="1">
          <mxGeometry x="278" y="360" width="12" height="12" as="geometry" />
        </mxCell>
        <mxCell id="ksmMjUWratzDdnnF7wuf-67" value="&lt;font face=&quot;Times New Roman&quot;&gt;&lt;span style=&quot;font-size: 15px;&quot;&gt;Audio&amp;nbsp;&lt;/span&gt;&lt;/font&gt;" style="text;html=1;align=center;verticalAlign=middle;whiteSpace=wrap;rounded=0;" vertex="1" parent="1">
          <mxGeometry x="232" y="336" width="104" height="30" as="geometry" />
        </mxCell>
        <mxCell id="ksmMjUWratzDdnnF7wuf-68" value="" style="endArrow=classic;html=1;rounded=0;entryX=0.269;entryY=0.8;entryDx=0;entryDy=0;entryPerimeter=0;" edge="1" parent="1" target="ksmMjUWratzDdnnF7wuf-67">
          <mxGeometry width="50" height="50" relative="1" as="geometry">
            <mxPoint x="150" y="360" as="sourcePoint" />
            <mxPoint x="330" y="150" as="targetPoint" />
          </mxGeometry>
        </mxCell>
        <mxCell id="ksmMjUWratzDdnnF7wuf-71" value="" style="endArrow=classic;html=1;rounded=0;" edge="1" parent="1">
          <mxGeometry width="50" height="50" relative="1" as="geometry">
            <mxPoint x="540" y="360" as="sourcePoint" />
            <mxPoint x="400" y="360" as="targetPoint" />
          </mxGeometry>
        </mxCell>
        <mxCell id="ksmMjUWratzDdnnF7wuf-72" value="&lt;font face=&quot;Times New Roman&quot;&gt;&lt;span style=&quot;font-size: 15px;&quot;&gt;Power&lt;/span&gt;&lt;/font&gt;&lt;div&gt;&lt;font face=&quot;Times New Roman&quot;&gt;&lt;span style=&quot;font-size: 15px;&quot;&gt;5V - 3A&lt;/span&gt;&lt;/font&gt;&lt;/div&gt;" style="text;html=1;align=center;verticalAlign=middle;whiteSpace=wrap;rounded=0;" vertex="1" parent="1">
          <mxGeometry x="570" y="346" width="60" height="30" as="geometry" />
        </mxCell>
      </root>
    </mxGraphModel>
  </diagram>
</mxfile>
